name analog
datacolumns 19
datarows 56
range 0.4925 0.52
endheader
time	ground_force_vx	ground_force_vy	ground_force_vz	ground_force_px	ground_force_py	ground_force_pz	l_ground_force_vx	l_ground_force_vy	l_ground_force_vz	l_ground_force_px	l_ground_force_py	l_ground_force_pz	ground_torque_x	ground_torque_y	ground_torque_z	l_ground_torque_x	l_ground_torque_y	l_ground_torque_z
0.4925	-0.0	-0.0	-0.0	0.0244815349578857	59.24300384521485	-374.218994140625	-46.24236679077149	-70.80449676513672	-435.2974243164063	-0.0	-0.0	-0.0	-0.0	-0.0	-0.0	118225.375	14993.1103515625	-16740.59765625
0.493	-0.0	-0.0	-0.0	26.502609252929688	54.45867919921875	-393.3278503417969	-52.20412826538086	-67.52842712402344	-412.6044616699219	-0.0	-0.0	-0.0	-0.0	-0.0	-0.0	112872.2265625	14994.4248046875	-17607.509765625
0.4935	-0.0	-0.0	-0.0	44.15617752075195	50.32004928588867	-403.2166748046875	-51.45225524902344	-63.25210189819336	-393.5672912597656	-0.0	-0.0	-0.0	-0.0	-0.0	-0.0	107177.5703125	13934.919921875	-17026.724609375
0.494	-0.0	-0.0	-0.0	49.89980316162109	46.09976577758789	-392.3746643066406	-45.0837516784668	-60.50035858154297	-374.5662231445313	-0.0	-0.0	-0.0	-0.0	-0.0	-0.0	102196.265625	13605.6826171875	-15054.3125
0.4945	-0.0	-0.0	-0.0	36.92046737670898	44.01240539550781	-367.5773010253906	-40.31231689453125	-59.059120178222656	-359.1869812011719	-0.0	-0.0	-0.0	-0.0	-0.0	-0.0	97953.6953125	12693.3828125	-13222.1552734375
0.495	-0.0	-0.0	-0.0	12.407529830932615	45.22942352294922	-345.40997314453125	-37.85122299194336	-59.06843566894531	-349.96124267578125	-0.0	-0.0	-0.0	-0.0	-0.0	-0.0	95630.109375	12177.533203125	-12083.6591796875
0.4955	-0.0	-0.0	-0.0	-9.131019592285156	47.96302795410156	-320.68310546875	-37.26797866821289	-60.75591659545898	-346.04644775390625	-0.0	-0.0	-0.0	-0.0	-0.0	-0.0	94150.328125	11327.5703125	-11723.2509765625
0.496	-0.0	-0.0	-0.0	-24.642290115356445	49.24923706054688	-306.5992126464844	-36.8846549987793	-62.69892501831055	-346.08416748046875	-0.0	-0.0	-0.0	-0.0	-0.0	-0.0	94472.546875	10243.771484375	-11175.71875
0.4965	-0.0	-0.0	-0.0	-34.83189010620117	50.7154541015625	-293.3751525878906	-34.654441833496094	-63.88507461547852	-354.051025390625	-0.0	-0.0	-0.0	-0.0	-0.0	-0.0	95826.484375	9193.255859375	-10020.7490234375
0.497	-0.0	-0.0	-0.0	-39.33224487304688	51.517372131347656	-284.78125	-25.56118392944336	-68.24172973632812	-393.7850646972656	-0.0	-0.0	-0.0	-0.0	-0.0	-0.0	108087.2890625	4216.3115234375	-6868.8388671875
0.4975	-0.0	-0.0	-0.0	-40.17513275146485	51.25994491577149	-275.3244934082031	18.58207893371582	-63.54161834716797	-462.2933349609375	-0.0	-0.0	-0.0	-0.0	-0.0	-0.0	129001.28125	-5645.0546875	6362.28369140625
0.498	-0.0	-0.0	-0.0	-39.38176345825195	49.71481704711914	-271.4397888183594	72.48094940185547	-54.46175384521485	-516.5547485351562	-0.0	-0.0	-0.0	-0.0	-0.0	-0.0	146441.0	-16152.9736328125	22369.048828125
0.4985	-0.0	-0.0	-0.0	-38.63820266723633	48.58611297607422	-270.0235290527344	108.98811340332033	-39.48673629760742	-510.87982177734375	-0.0	-0.0	-0.0	-0.0	-0.0	-0.0	146068.078125	-20370.1875	32876.828125
0.499	-0.0	-0.0	-0.0	-38.80657196044922	47.74369430541992	-271.5555114746094	107.34749603271484	-33.228328704833984	-484.8522033691406	-0.0	-0.0	-0.0	-0.0	-0.0	-0.0	138696.765625	-19769.451171875	32262.3828125
0.4995	-0.0	-0.0	-0.0	-37.55762481689453	47.75373077392578	-273.7544250488281	71.6333236694336	-37.98802947998047	-449.0434265136719	-0.0	-0.0	-0.0	-0.0	-0.0	-0.0	128298.6640625	-15327.568359375	21542.791015625
0.5	-0.0	-0.0	-0.0	-34.346046447753906	48.784786224365234	-281.3146667480469	32.52547836303711	-43.26785659790039	-408.3884582519531	-0.0	-0.0	-0.0	-0.0	-0.0	-0.0	115879.9140625	-10197.3154296875	10357.810546875
0.5005000000000001	-0.0	-0.0	-0.0	-29.235395431518555	50.893463134765625	-286.5805053710937	3.833731889724731	-46.86943435668945	-374.6390075683594	-0.0	-0.0	-0.0	-0.0	-0.0	-0.0	105917.9765625	-5994.806640625	2169.34228515625
0.501	-0.0	-0.0	-0.0	-23.156787872314453	53.56737518310547	-293.179931640625	-15.040319442749023	-49.64620971679688	-352.9550476074219	-0.0	-0.0	-0.0	-0.0	-0.0	-0.0	100232.46875	-3728.287353515625	-3206.999267578125
0.5015000000000001	-0.0	-0.0	-0.0	-15.189531326293944	56.0117301940918	-299.49658203125	-23.222381591796875	-50.92210388183594	-341.31640625	-0.0	-0.0	-0.0	-0.0	-0.0	-0.0	96913.2109375	-2645.205322265625	-5444.6982421875
0.502	-0.0	-0.0	-0.0	-8.320477485656738	58.13024139404297	-301.5474853515625	-22.789451599121094	-51.42229843139648	-342.4786376953125	-0.0	-0.0	-0.0	-0.0	-0.0	-0.0	97344.7109375	-2815.025390625	-5006.421875
0.5025000000000001	-0.0	-0.0	-0.0	-5.074647903442383	58.33905029296875	-305.7308959960937	-14.866053581237791	-51.04993438720703	-351.4775695800781	-0.0	-0.0	-0.0	-0.0	-0.0	-0.0	100637.7421875	-4836.7412109375	-2403.798095703125
0.503	-0.0	-0.0	-0.0	-3.846426725387573	57.451805114746094	-307.3076171875	-2.1020617485046387	-49.53848648071289	-369.4813537597656	-0.0	-0.0	-0.0	-0.0	-0.0	-0.0	106134.6171875	-7279.7509765625	1899.6387939453125
0.5035000000000001	-0.0	-0.0	-0.0	-4.975006103515625	56.79683303833008	-305.97723388671875	13.84555435180664	-48.08699798583984	-389.49505615234375	-0.0	-0.0	-0.0	-0.0	-0.0	-0.0	111671.2421875	-10038.9140625	6780.05859375
0.504	-0.0	-0.0	-0.0	-7.152832984924316	55.96836853027344	-302.7166442871094	28.570384979248047	-47.63559722900391	-401.7541198730469	-0.0	-0.0	-0.0	-0.0	-0.0	-0.0	115654.4921875	-12523.9091796875	11545.994140625
0.5045000000000001	-0.0	-0.0	-0.0	-9.41437530517578	55.90571594238281	-300.55615234375	38.18366622924805	-48.077274322509766	-410.1334838867188	-0.0	-0.0	-0.0	-0.0	-0.0	-0.0	118450.0	-14298.6953125	14911.384765625
0.505	-0.0	-0.0	-0.0	-10.993999481201172	56.781829833984375	-298.8320007324219	41.92958831787109	-48.32212448120117	-414.6839904785156	-0.0	-0.0	-0.0	-0.0	-0.0	-0.0	120424.3046875	-15506.5703125	16076.029296875
0.5055000000000001	-0.0	-0.0	-0.0	-12.038763999938965	57.27451705932617	-299.3291931152344	39.5478515625	-47.96885681152344	-416.5379028320313	-0.0	-0.0	-0.0	-0.0	-0.0	-0.0	120906.1640625	-15709.3994140625	15854.2197265625
0.506	-0.0	-0.0	-0.0	-12.531810760498049	58.09187316894531	-293.9534912109375	34.75757598876953	-46.603275299072266	-411.1126403808594	-0.0	-0.0	-0.0	-0.0	-0.0	-0.0	118952.90625	-15353.701171875	14341.7568359375
0.5065000000000001	-0.0	-0.0	-0.0	-13.438827514648438	58.41234588623047	-297.3353271484375	28.057247161865234	-44.18136215209961	-403.6192626953125	-0.0	-0.0	-0.0	-0.0	-0.0	-0.0	117564.609375	-14312.251953125	12474.51953125
0.507	-0.0	-0.0	-0.0	-13.449434280395508	59.01499176025391	-296.75567626953125	22.26032066345215	-41.96308517456055	-398.69049072265625	-0.0	-0.0	-0.0	-0.0	-0.0	-0.0	115757.328125	-13490.984375	10413.7978515625
0.5075000000000001	-0.0	-0.0	-0.0	-13.338809967041016	58.35905456542969	-300.4291687011719	16.787023544311523	-40.7780876159668	-392.8363037109375	-0.0	-0.0	-0.0	-0.0	-0.0	-0.0	113905.1875	-13128.1650390625	8925.0029296875
0.508	-0.0	-0.0	-0.0	-13.438506126403809	58.17752456665039	-300.11773681640625	14.115426063537598	-41.13717269897461	-388.3795166015625	-0.0	-0.0	-0.0	-0.0	-0.0	-0.0	113129.6640625	-12572.2666015625	7986.1796875
0.5085000000000001	-0.0	-0.0	-0.0	-13.527642250061035	58.39119338989258	-301.6583557128906	12.169029235839844	-41.44365692138672	-384.5802612304688	-0.0	-0.0	-0.0	-0.0	-0.0	-0.0	112308.9765625	-12479.0009765625	7740.4423828125
0.509	-0.0	-0.0	-0.0	-13.660061836242676	58.63695907592773	-301.7015991210937	12.93076515197754	-41.75524520874024	-385.1969604492188	-0.0	-0.0	-0.0	-0.0	-0.0	-0.0	112823.671875	-12484.8525390625	7974.7041015625
0.5095000000000001	-0.0	-0.0	-0.0	-14.765467643737791	58.5717887878418	-303.037353515625	14.683911323547363	-41.64141082763672	-389.2626647949219	-0.0	-0.0	-0.0	-0.0	-0.0	-0.0	113829.5546875	-12882.8837890625	8666.806640625
0.51	-0.0	-0.0	-0.0	-14.719734191894531	58.41515350341797	-302.10650634765625	16.844511032104492	-41.95280456542969	-393.8015441894531	-0.0	-0.0	-0.0	-0.0	-0.0	-0.0	115011.4140625	-13483.958984375	9528.478515625
0.5105000000000001	-0.0	-0.0	-0.0	-14.652436256408691	58.12553024291992	-301.1757507324219	20.27234649658203	-42.69105529785156	-397.6837158203125	-0.0	-0.0	-0.0	-0.0	-0.0	-0.0	116747.6640625	-14200.6083984375	10572.3583984375
0.511	-0.0	-0.0	-0.0	-13.927820205688477	57.41094970703125	-299.09454345703125	23.678815841674805	-43.47543716430664	-402.1808166503906	-0.0	-0.0	-0.0	-0.0	-0.0	-0.0	118095.9296875	-15051.2490234375	11612.7724609375
0.5115000000000001	-0.0	-0.0	-0.0	-12.5774507522583	57.67835998535156	-299.627197265625	26.169681549072266	-45.55278778076172	-405.1415710449219	-0.0	-0.0	-0.0	-0.0	-0.0	-0.0	119047.375	-15850.4990234375	12640.3623046875
0.512	-0.0	-0.0	-0.0	-11.965274810791016	57.84563446044922	-299.49658203125	28.35530662536621	-46.46787643432617	-406.6773071289063	-0.0	-0.0	-0.0	-0.0	-0.0	-0.0	119254.921875	-16443.376953125	13613.41015625
0.5125	-0.0	-0.0	-0.0	-10.783381462097168	58.85979843139648	-300.4683532714844	29.55142974853516	-47.68301773071289	-407.3331604003906	-0.0	-0.0	-0.0	-0.0	-0.0	-0.0	119828.8359375	-16798.283203125	14084.9609375
0.513	-0.0	-0.0	-0.0	-10.805630683898926	60.53063201904297	-300.2912902832031	29.462787628173828	-48.7880973815918	-409.0780944824219	-0.0	-0.0	-0.0	-0.0	-0.0	-0.0	119632.9765625	-16679.173828125	14191.5869140625
0.5135	-0.0	-0.0	-0.0	-10.749959945678713	61.62241363525391	-299.7177734375	29.46280288696289	-48.510162353515625	-405.9697570800781	-0.0	-0.0	-0.0	-0.0	-0.0	-0.0	119649.1875	-16664.33203125	14146.810546875
0.514	-0.0	-0.0	-0.0	-9.947120666503906	62.602783203125	-300.55615234375	28.809329986572266	-48.079368591308594	-405.3650512695313	-0.0	-0.0	-0.0	-0.0	-0.0	-0.0	119046.859375	-16649.57421875	14053.8642578125
0.5145	-0.0	-0.0	-0.0	-9.53426742553711	63.0593376159668	-300.2474975585937	28.155502319335938	-47.79289245605469	-401.9593811035156	-0.0	-0.0	-0.0	-0.0	-0.0	-0.0	118458.6328125	-16774.466796875	13768.3525390625
0.515	-0.0	-0.0	-0.0	-8.843122482299805	63.29281234741211	-299.71990966796875	26.72380828857422	-47.72636032104492	-400.1707763671875	-0.0	-0.0	-0.0	-0.0	-0.0	-0.0	117644.2734375	-16730.560546875	13540.9951171875
0.5155	-0.0	-0.0	-0.0	-7.785088539123535	62.64738845825195	-301.65576171875	25.814838409423828	-47.91508483886719	-398.2096862792969	-0.0	-0.0	-0.0	-0.0	-0.0	-0.0	117018.4921875	-16395.626953125	13355.0068359375
0.516	-0.0	-0.0	-0.0	-6.569202423095703	61.83551406860352	-300.3829345703125	25.08312225341797	-47.84842300415039	-396.3738098144531	-0.0	-0.0	-0.0	-0.0	-0.0	-0.0	116897.9140625	-16538.49609375	13124.7568359375
0.5165	-0.0	-0.0	-0.0	-4.963529586791992	61.46583557128906	-302.8930969238281	25.127227783203125	-47.93669891357422	-395.3265075683594	-0.0	-0.0	-0.0	-0.0	-0.0	-0.0	116679.4140625	-16594.482421875	13080.1552734375
0.517	-0.0	-0.0	-0.0	-3.479209899902344	60.5628776550293	-306.7772827148437	25.92562294006348	-47.72688293457031	-396.8979797363281	-0.0	-0.0	-0.0	-0.0	-0.0	-0.0	116734.9375	-16833.466796875	13255.0009765625
0.5175	-0.0	-0.0	-0.0	-3.044630765914917	59.82942962646485	-307.0848388671875	26.38046646118164	-48.23471450805664	-397.1156921386719	-0.0	-0.0	-0.0	-0.0	-0.0	-0.0	117084.9921875	-17062.80859375	13707.578125
0.518	-0.0	-0.0	-0.0	-2.132266044616699	59.19406509399414	-307.0953369140625	27.699657440185547	-48.61019134521485	-395.9817504882813	-0.0	-0.0	-0.0	-0.0	-0.0	-0.0	116998.0390625	-17404.419921875	14027.2734375
0.5185	-0.0	-0.0	-0.0	-2.595410823822021	58.55867767333984	-310.170654296875	27.932693481445312	-49.34859085083008	-395.677001953125	-0.0	-0.0	-0.0	-0.0	-0.0	-0.0	116749.3984375	-17304.388671875	14134.908203125
0.519	-0.0	-0.0	-0.0	-3.277623176574707	58.33412551879883	-305.5143127441406	27.987689971923828	-49.09567642211914	-396.0705261230469	-0.0	-0.0	-0.0	-0.0	-0.0	-0.0	116562.6796875	-17141.427734375	14049.791015625
0.5195	-0.0	-0.0	-0.0	-4.75135612487793	56.50867462158203	-305.638427734375	27.11176300048828	-48.7199821472168	-392.9726257324219	-0.0	-0.0	-0.0	-0.0	-0.0	-0.0	116028.3359375	-17211.94921875	13726.7353515625
0.52	-0.0	-0.0	-0.0	-6.167193412780762	55.58653259277344	-306.63623046875	25.560020446777344	-48.88695526123047	-393.1001892089844	-0.0	-0.0	-0.0	-0.0	-0.0	-0.0	115714.8515625	-16891.47265625	13365.9287109375
